<svg xmlns="http://www.w3.org/2000/svg" width="46" height="46"><path fill-rule="evenodd" fill="#c7b299" d="M29.873 24.374H16.125a1.375 1.375 0 000 2.75h13.748a1.375 1.375 0 000-2.75zm2.75-8.248H13.375a1.375 1.375 0 100 2.749h19.246a1.375 1.375 0 000-2.749zM22.998 1.003C10.852 1.003 1.003 9.62 1.003 20.25c0 6.075 3.224 11.483 8.249 15.01v9.735l9.635-5.847c1.334.22 2.706.348 4.112.348 12.15 0 21.996-8.617 21.996-19.246C44.995 9.62 35.148 1.003 23 1.003zm0 35.744c-1.606 0-3.156-.187-4.646-.505l-6.473 3.89.087-6.376C7.005 30.772 3.753 25.84 3.753 20.25c0-9.11 8.617-16.498 19.246-16.498 10.63 0 19.247 7.387 19.247 16.498 0 9.11-8.617 16.497-19.247 16.497z"/></svg>