<svg xmlns="http://www.w3.org/2000/svg" width="56" height="46"><path fill-rule="evenodd" fill="#c7b299" d="M53.31 41.611H2.69a1.69 1.69 0 00-1.687 1.693 1.69 1.69 0 001.688 1.691h50.62a1.69 1.69 0 001.687-1.691 1.69 1.69 0 00-1.688-1.693zM29.687 7.771V4.387h3.376a1.69 1.69 0 001.687-1.693 1.69 1.69 0 00-1.687-1.69H22.939a1.69 1.69 0 00-1.688 1.69 1.69 1.69 0 001.688 1.693h3.375s-.013 3.523 0 3.384c-14.12.878-25.31 12.692-25.31 27.072v1.692a1.69 1.69 0 001.687 1.692h50.62a1.69 1.69 0 001.687-1.692v-1.692c0-14.38-11.19-26.194-25.31-27.072zM4.378 34.843c0-13.082 10.577-23.688 23.624-23.688 13.047 0 23.622 10.606 23.622 23.688H4.378z"/></svg>