<svg xmlns="http://www.w3.org/2000/svg" width="24" height="24"><path fill-rule="evenodd" fill="#c7b299" d="M15.417 11.434l-4.772-4.773a.737.737 0 00-1.04 1.041l4.254 4.255-4.255 4.253a.736.736 0 001.04 1.041l4.773-4.771a.73.73 0 00.216-.523.73.73 0 00-.216-.523zM12.012 1.026c-6.066 0-10.984 4.917-10.984 10.985 0 6.065 4.918 10.984 10.984 10.984 6.067 0 10.985-4.919 10.985-10.984 0-6.068-4.918-10.985-10.985-10.985zm0 20.497c-5.244 0-9.513-4.27-9.513-9.512 0-5.246 4.269-9.514 9.513-9.514 5.245 0 9.513 4.268 9.513 9.514 0 5.242-4.268 9.512-9.513 9.512z"/></svg>