<svg xmlns="http://www.w3.org/2000/svg" width="47" height="47"><path fill-rule="evenodd" fill="#c7b299" d="M32.25 2c-.424 0-.847.026-1.268.064-.154.015-.306.037-.459.057a12.727 12.727 0 00-1.95.393c-.198.055-.396.109-.59.172-.178.058-.35.127-.524.192-.46.173-.908.367-1.343.583-.086.042-.176.081-.26.127-.229.121-.449.255-.672.388-.12.074-.244.144-.365.222-.215.138-.422.285-.628.434-.062.045-.128.086-.191.132A13.706 13.706 0 0015.75 2C8.168 2 2 8.167 2 15.75c0 12.444 8.002 23.702 21.406 30.113a1.363 1.363 0 001.188 0C37.997 39.453 46 28.194 46 15.75 46 8.167 39.83 2 32.25 2zM24 43.097C11.934 37.107 4.75 26.927 4.75 15.75c0-6.065 4.935-11 11-11 2.219 0 4.368.685 6.19 1.933-2.135 2.424-3.44 5.592-3.44 9.067a1.374 1.374 0 102.75 0c0-3.274 1.446-6.211 3.724-8.227.21-.189.43-.366.653-.536.051-.036.101-.075.152-.113a10.702 10.702 0 01.864-.57c.221-.134.448-.258.678-.373.079-.04.16-.078.241-.117.22-.104.443-.204.67-.293.1-.04.202-.076.305-.113.214-.076.428-.15.646-.213.133-.037.262-.07.395-.102.197-.05.392-.1.593-.14.182-.033.365-.057.548-.083.156-.024.312-.05.47-.067.35-.032.704-.053 1.061-.053 6.065 0 11 4.935 11 11 0 11.177-7.184 21.358-19.25 27.347zM32.25 7.5a1.375 1.375 0 000 2.75c3.033 0 5.5 2.466 5.5 5.5a1.375 1.375 0 002.75 0c0-4.55-3.7-8.25-8.25-8.25z"/></svg>