<svg xmlns="http://www.w3.org/2000/svg" width="51" height="47"><path fill-rule="evenodd" fill="#c7b299" d="M48.043 44.749c0 .69-.552 1.25-1.234 1.25H3.234C2.552 46 2 45.44 2 44.75s.552-1.251 1.234-1.251h43.575c.682 0 1.234.56 1.234 1.25zM23.77 24.213a1.22 1.22 0 001.744-.061 1.263 1.263 0 00-.06-1.768c-2.115-2.002-1.663-6.07.155-8.37 2.467-3.12 3.01-8.683-.155-11.677a1.222 1.222 0 00-1.744.061 1.263 1.263 0 00.06 1.769c1.9 1.797 1.858 5.822-.087 8.283-1.278 1.617-2.042 3.784-2.096 5.946-.06 2.363.716 4.429 2.183 5.817zM50 21.614v2.4c0 3.44-2.76 6.239-6.153 6.239H41.09c-1.87 5.27-6.85 9.05-12.686 9.05h-6.766c-7.431 0-13.476-6.128-13.476-13.66V13.232c0-.691.552-1.251 1.234-1.251h7.915c1.606-2.476 1.535-6.127-.25-7.814a1.263 1.263 0 01-.06-1.769 1.222 1.222 0 011.745-.06c3.164 2.993 2.621 8.556.155 11.676-1.819 2.3-2.272 6.368-.155 8.37.498.471.525 1.262.06 1.768a1.222 1.222 0 01-1.744.061c-1.468-1.388-2.243-3.454-2.184-5.817.034-1.347.343-2.696.881-3.913h-5.13v11.16c0 6.153 4.939 11.159 11.009 11.159h6.766c6.07 0 11.008-5.007 11.008-11.16v-11.16h-9.278c-.682 0-1.234-.56-1.234-1.25 0-.691.552-1.251 1.234-1.251h10.512c.682 0 1.234.56 1.234 1.25v2.144h1.965c3.393 0 6.154 2.799 6.154 6.24zm-2.467 0c0-2.06-1.654-3.737-3.686-3.737H41.88v9.874h1.965c2.032 0 3.686-1.676 3.686-3.737v-2.4z"/></svg>